<?xml version="1.0" encoding="utf-8"?>
<svg viewBox="43.702 38.769 396.268 67.725" xmlns="http://www.w3.org/2000/svg">
  <path d="M 78.561 75.417 C 69.389 66.239 66.928 52.981 70.99 41.506 C 66.552 43.075 62.357 45.531 58.811 49.076 C 46.08 61.807 46.08 82.444 58.811 95.166 C 71.535 107.89 92.163 107.897 104.893 95.166 C 108.451 91.62 110.901 87.424 112.464 82.987 C 100.995 87.049 87.732 84.587 78.56 75.416 L 78.561 75.417 Z" style="fill: rgb(162, 162, 162); vector-effect: non-scaling-stroke; stroke-width: 0px;" transform="matrix(0.999924, 0.012294, -0.012294, 0.999924, 0.904911, -0.98861)"/>
  <path d="M 169.848 87.23 Q 167.688 88.958 163.98 90.146 Q 160.272 91.334 156.096 91.334 Q 147.384 91.334 143.352 86.258 Q 139.32 81.182 139.32 72.326 Q 139.32 62.822 143.856 58.07 Q 148.392 53.318 156.6 53.318 Q 159.336 53.318 161.928 54.038 Q 164.52 54.758 166.536 56.414 Q 168.552 58.07 169.776 60.878 Q 171 63.686 171 67.862 Q 171 69.374 170.82 71.102 Q 170.64 72.83 170.28 74.702 L 148.68 74.702 Q 148.896 79.238 151.02 81.542 Q 153.144 83.846 157.896 83.846 Q 160.848 83.846 163.188 82.946 Q 165.528 82.046 166.752 81.11 Z M 156.456 60.806 Q 152.784 60.806 151.02 63.002 Q 149.256 65.198 148.896 68.87 L 162.288 68.87 Q 162.576 64.982 161.1 62.894 Q 159.624 60.806 156.456 60.806 Z" style="fill: rgb(162, 162, 162); paint-order: fill; stroke-width: 0px; white-space: pre;"/>
  <path d="M 175.526 72.326 Q 175.526 63.182 179.99 58.25 Q 184.454 53.318 192.518 53.318 Q 196.838 53.318 200.006 54.686 Q 203.174 56.054 205.262 58.538 Q 207.35 61.022 208.394 64.55 Q 209.438 68.078 209.438 72.326 Q 209.438 81.47 205.01 86.402 Q 200.582 91.334 192.518 91.334 Q 188.198 91.334 185.03 89.966 Q 181.862 88.598 179.738 86.114 Q 177.614 83.63 176.57 80.102 Q 175.526 76.574 175.526 72.326 Z M 185.174 72.326 Q 185.174 74.702 185.606 76.718 Q 186.038 78.734 186.902 80.246 Q 187.766 81.758 189.17 82.586 Q 190.574 83.414 192.518 83.414 Q 196.19 83.414 197.99 80.75 Q 199.79 78.086 199.79 72.326 Q 199.79 67.358 198.134 64.298 Q 196.478 61.238 192.518 61.238 Q 189.062 61.238 187.118 63.83 Q 185.174 66.422 185.174 72.326 Z" style="fill: rgb(162, 162, 162); paint-order: fill; stroke-width: 0px; white-space: pre;"/>
  <path d="M 236.362 90.326 L 236.362 70.742 Q 236.362 65.774 235.426 63.686 Q 234.49 61.598 231.538 61.598 Q 229.09 61.598 227.578 62.93 Q 226.066 64.262 225.274 66.35 L 225.274 90.326 L 215.914 90.326 L 215.914 54.326 L 223.186 54.326 L 224.266 59.078 L 224.554 59.078 Q 226.21 56.774 228.766 55.046 Q 231.322 53.318 235.354 53.318 Q 238.81 53.318 241.006 54.722 Q 243.202 56.126 244.426 59.438 Q 246.082 56.63 248.674 54.974 Q 251.266 53.318 254.938 53.318 Q 257.962 53.318 260.086 54.038 Q 262.21 54.758 263.542 56.522 Q 264.874 58.286 265.522 61.238 Q 266.17 64.19 266.17 68.726 L 266.17 90.326 L 256.81 90.326 L 256.81 70.094 Q 256.81 65.846 255.91 63.722 Q 255.01 61.598 251.914 61.598 Q 249.394 61.598 247.918 62.966 Q 246.442 64.334 245.722 66.71 L 245.722 90.326 Z" style="fill: rgb(162, 162, 162); paint-order: fill; stroke-width: 0px; white-space: pre;"/>
  <path d="M 273.657 56.414 Q 276.537 55.118 280.497 54.362 Q 284.457 53.606 288.777 53.606 Q 292.521 53.606 295.041 54.506 Q 297.561 55.406 299.037 57.062 Q 300.513 58.718 301.125 61.022 Q 301.737 63.326 301.737 66.206 Q 301.737 69.374 301.521 72.578 Q 301.305 75.782 301.269 78.878 Q 301.233 81.974 301.449 84.89 Q 301.665 87.806 302.529 90.398 L 294.897 90.398 L 293.385 85.43 L 293.025 85.43 Q 291.585 87.662 289.029 89.282 Q 286.473 90.902 282.441 90.902 Q 279.921 90.902 277.905 90.146 Q 275.889 89.39 274.449 87.986 Q 273.009 86.582 272.217 84.674 Q 271.425 82.766 271.425 80.39 Q 271.425 77.078 272.901 74.81 Q 274.377 72.542 277.149 71.138 Q 279.921 69.734 283.773 69.194 Q 287.625 68.654 292.377 68.87 Q 292.881 64.838 291.801 63.074 Q 290.721 61.31 286.977 61.31 Q 284.169 61.31 281.037 61.886 Q 277.905 62.462 275.889 63.398 Z M 285.537 83.198 Q 288.345 83.198 290.001 81.938 Q 291.657 80.678 292.449 79.238 L 292.449 74.558 Q 290.217 74.342 288.165 74.486 Q 286.113 74.63 284.529 75.134 Q 282.945 75.638 282.009 76.574 Q 281.073 77.51 281.073 78.95 Q 281.073 80.966 282.261 82.082 Q 283.449 83.198 285.537 83.198 Z" style="fill: rgb(162, 162, 162); paint-order: fill; stroke-width: 0px; white-space: pre;"/>
  <path d="M 309.595 54.326 L 316.435 54.326 L 317.515 58.646 L 317.803 58.646 Q 319.675 55.91 322.231 54.614 Q 324.787 53.318 328.459 53.318 Q 335.227 53.318 338.611 57.602 Q 341.995 61.886 341.995 71.39 Q 341.995 75.998 340.915 79.706 Q 339.835 83.414 337.711 86.006 Q 335.587 88.598 332.527 89.966 Q 329.467 91.334 325.507 91.334 Q 323.275 91.334 321.835 91.01 Q 320.395 90.686 318.955 89.966 L 318.955 104.726 L 309.595 104.726 Z M 325.651 61.238 Q 322.915 61.238 321.367 62.606 Q 319.819 63.974 318.955 66.71 L 318.955 81.686 Q 319.963 82.478 321.151 82.946 Q 322.339 83.414 324.283 83.414 Q 328.315 83.414 330.331 80.57 Q 332.347 77.726 332.347 71.174 Q 332.347 66.422 330.763 63.83 Q 329.179 61.238 325.651 61.238 Z" style="fill: rgb(162, 162, 162); paint-order: fill; stroke-width: 0px; white-space: pre;"/>
  <path d="M 354.852 65.486 L 372.924 65.486 L 372.924 73.766 L 354.852 73.766 Z" style="fill: rgb(162, 162, 162); paint-order: fill; stroke-width: 0px; white-space: pre;"/>
  <path d="M 388.466 54.326 L 397.826 54.326 L 397.826 91.838 Q 397.826 98.39 395.234 101.846 Q 392.642 105.302 386.954 105.302 Q 384.794 105.302 382.346 104.798 L 382.346 96.95 Q 382.634 96.95 382.85 96.986 Q 383.066 97.022 383.282 97.022 Q 386.522 97.022 387.494 94.934 Q 388.466 92.846 388.466 89.174 Z M 387.17 44.174 Q 387.17 42.086 388.718 40.61 Q 390.266 39.134 393.002 39.134 Q 395.738 39.134 397.43 40.61 Q 399.122 42.086 399.122 44.174 Q 399.122 46.262 397.43 47.666 Q 395.738 49.07 393.002 49.07 Q 390.266 49.07 388.718 47.666 Q 387.17 46.262 387.17 44.174 Z" style="fill: rgb(162, 162, 162); paint-order: fill; stroke-width: 0px; white-space: pre;"/>
  <path d="M 425.086 80.39 Q 425.086 78.95 423.862 78.086 Q 422.638 77.222 420.838 76.502 Q 419.038 75.782 416.878 75.026 Q 414.718 74.27 412.918 72.938 Q 411.118 71.606 409.894 69.554 Q 408.67 67.502 408.67 64.262 Q 408.67 58.934 411.838 56.126 Q 415.006 53.318 420.982 53.318 Q 425.086 53.318 428.398 54.182 Q 431.71 55.046 433.582 56.126 L 431.494 62.894 Q 429.838 62.246 427.318 61.526 Q 424.798 60.806 422.206 60.806 Q 418.03 60.806 418.03 64.046 Q 418.03 65.342 419.254 66.134 Q 420.478 66.926 422.278 67.61 Q 424.078 68.294 426.238 69.086 Q 428.398 69.878 430.198 71.138 Q 431.998 72.398 433.222 74.414 Q 434.446 76.43 434.446 79.598 Q 434.446 85.07 430.954 88.202 Q 427.462 91.334 420.478 91.334 Q 416.662 91.334 413.314 90.362 Q 409.966 89.39 407.878 88.094 L 410.47 81.11 Q 412.126 82.046 414.862 82.946 Q 417.598 83.846 420.478 83.846 Q 422.566 83.846 423.826 83.054 Q 425.086 82.262 425.086 80.39 Z" style="fill: rgb(162, 162, 162); paint-order: fill; stroke-width: 0px; white-space: pre;"/>
</svg>